# xmcd
#
# Track frame offsets:
#	150
#	19402
#	39480
#	57110
#	76675
#	89342
#	107170
#	129572
#	143062
#	158405
#
# Disc length: 2250 seconds
#
# Revision: 11
# Processed by: cddbd v1.5.2PL0 Copyright (c) Steve Scherf et al.
# Submitted via: audiograbber 1.83.01
#
DISCID=7408c80a
DTITLE=Wynonna Judd - Wynonna
DYEAR=1992
DGENRE=Country
TTITLE0=What It Takes
TTITLE1=She Is His Only Need
TTITLE2=I Saw The Light
TTITLE3=My Strongest Weakness
TTITLE4=When I Reach The Place I'm Goin'
TTITLE5=No One Else On Earth
TTITLE6=It's Never Easy To Say Goodbye
TTITLE7=A Little Bit Of Love (Goes A Long, Long Way)
TTITLE8=All Of That Love From Here
TTITLE9=Live With Jesus
EXTD=YEAR: 1992
EXTT0=
EXTT1=
EXTT2=
EXTT3=
EXTT4=
EXTT5=
EXTT6=
EXTT7=
EXTT8=
EXTT9=
PLAYORDER=
